<mxfile host="Electron" agent="Mozilla/5.0 (Windows NT 10.0; Win64; x64) AppleWebKit/537.36 (KHTML, like Gecko) draw.io/26.2.2 Chrome/134.0.6998.178 Electron/35.1.2 Safari/537.36" version="26.2.2">
  <diagram name="Page-1" id="ttyIsGpzwxVlLtLD-7Ff">
    <mxGraphModel dx="786" dy="825" grid="1" gridSize="10" guides="1" tooltips="1" connect="1" arrows="1" fold="1" page="1" pageScale="1" pageWidth="850" pageHeight="1100" math="0" shadow="0">
      <root>
        <mxCell id="0" />
        <mxCell id="1" parent="0" />
        <mxCell id="EFBXmYC1O8Cc9fxM-fiF-10" value="" style="edgeStyle=orthogonalEdgeStyle;rounded=0;orthogonalLoop=1;jettySize=auto;html=1;" parent="1" source="EFBXmYC1O8Cc9fxM-fiF-1" target="EFBXmYC1O8Cc9fxM-fiF-2" edge="1">
          <mxGeometry relative="1" as="geometry" />
        </mxCell>
        <mxCell id="EFBXmYC1O8Cc9fxM-fiF-1" value="Start" style="ellipse;whiteSpace=wrap;html=1;" parent="1" vertex="1">
          <mxGeometry x="340" y="40" width="120" height="80" as="geometry" />
        </mxCell>
        <mxCell id="EFBXmYC1O8Cc9fxM-fiF-11" value="" style="edgeStyle=orthogonalEdgeStyle;rounded=0;orthogonalLoop=1;jettySize=auto;html=1;" parent="1" source="EFBXmYC1O8Cc9fxM-fiF-2" target="EFBXmYC1O8Cc9fxM-fiF-3" edge="1">
          <mxGeometry relative="1" as="geometry" />
        </mxCell>
        <mxCell id="EFBXmYC1O8Cc9fxM-fiF-2" value="Receive POST request to /detect with image" style="rounded=0;whiteSpace=wrap;html=1;" parent="1" vertex="1">
          <mxGeometry x="340" y="150" width="120" height="60" as="geometry" />
        </mxCell>
        <mxCell id="EFBXmYC1O8Cc9fxM-fiF-5" value="" style="edgeStyle=orthogonalEdgeStyle;rounded=0;orthogonalLoop=1;jettySize=auto;html=1;" parent="1" source="EFBXmYC1O8Cc9fxM-fiF-3" target="EFBXmYC1O8Cc9fxM-fiF-4" edge="1">
          <mxGeometry relative="1" as="geometry" />
        </mxCell>
        <mxCell id="EFBXmYC1O8Cc9fxM-fiF-7" value="" style="edgeStyle=orthogonalEdgeStyle;rounded=0;orthogonalLoop=1;jettySize=auto;html=1;" parent="1" source="EFBXmYC1O8Cc9fxM-fiF-3" target="EFBXmYC1O8Cc9fxM-fiF-6" edge="1">
          <mxGeometry relative="1" as="geometry" />
        </mxCell>
        <mxCell id="EFBXmYC1O8Cc9fxM-fiF-3" value="Image Exist" style="rhombus;whiteSpace=wrap;html=1;" parent="1" vertex="1">
          <mxGeometry x="360" y="240" width="80" height="80" as="geometry" />
        </mxCell>
        <mxCell id="EFBXmYC1O8Cc9fxM-fiF-15" value="" style="edgeStyle=orthogonalEdgeStyle;rounded=0;orthogonalLoop=1;jettySize=auto;html=1;" parent="1" source="EFBXmYC1O8Cc9fxM-fiF-4" target="EFBXmYC1O8Cc9fxM-fiF-14" edge="1">
          <mxGeometry relative="1" as="geometry" />
        </mxCell>
        <mxCell id="EFBXmYC1O8Cc9fxM-fiF-4" value="&lt;div&gt;Read image bytes from request&lt;/div&gt;" style="whiteSpace=wrap;html=1;" parent="1" vertex="1">
          <mxGeometry x="340" y="350" width="120" height="60" as="geometry" />
        </mxCell>
        <mxCell id="EFBXmYC1O8Cc9fxM-fiF-9" value="" style="edgeStyle=orthogonalEdgeStyle;rounded=0;orthogonalLoop=1;jettySize=auto;html=1;" parent="1" source="EFBXmYC1O8Cc9fxM-fiF-6" target="EFBXmYC1O8Cc9fxM-fiF-8" edge="1">
          <mxGeometry relative="1" as="geometry" />
        </mxCell>
        <mxCell id="EFBXmYC1O8Cc9fxM-fiF-6" value="Return error JSON: &quot;No image uploaded&quot;" style="whiteSpace=wrap;html=1;" parent="1" vertex="1">
          <mxGeometry x="470" y="250" width="120" height="60" as="geometry" />
        </mxCell>
        <mxCell id="EFBXmYC1O8Cc9fxM-fiF-8" value="" style="shape=waypoint;sketch=0;size=6;pointerEvents=1;points=[];fillColor=default;resizable=0;rotatable=0;perimeter=centerPerimeter;snapToPoint=1;strokeWidth=9;" parent="1" vertex="1">
          <mxGeometry x="630" y="270" width="20" height="20" as="geometry" />
        </mxCell>
        <mxCell id="EFBXmYC1O8Cc9fxM-fiF-12" value="No" style="text;html=1;align=center;verticalAlign=middle;whiteSpace=wrap;rounded=0;" parent="1" vertex="1">
          <mxGeometry x="420" y="250" width="60" height="30" as="geometry" />
        </mxCell>
        <mxCell id="EFBXmYC1O8Cc9fxM-fiF-13" value="Yes" style="text;html=1;align=center;verticalAlign=middle;whiteSpace=wrap;rounded=0;" parent="1" vertex="1">
          <mxGeometry x="390" y="310" width="60" height="30" as="geometry" />
        </mxCell>
        <mxCell id="EFBXmYC1O8Cc9fxM-fiF-17" value="" style="edgeStyle=orthogonalEdgeStyle;rounded=0;orthogonalLoop=1;jettySize=auto;html=1;" parent="1" source="EFBXmYC1O8Cc9fxM-fiF-14" target="EFBXmYC1O8Cc9fxM-fiF-16" edge="1">
          <mxGeometry relative="1" as="geometry" />
        </mxCell>
        <mxCell id="EFBXmYC1O8Cc9fxM-fiF-14" value="Convert bytes to NumPy array" style="whiteSpace=wrap;html=1;" parent="1" vertex="1">
          <mxGeometry x="500" y="350" width="120" height="60" as="geometry" />
        </mxCell>
        <mxCell id="EFBXmYC1O8Cc9fxM-fiF-19" value="" style="edgeStyle=orthogonalEdgeStyle;rounded=0;orthogonalLoop=1;jettySize=auto;html=1;" parent="1" source="EFBXmYC1O8Cc9fxM-fiF-16" target="EFBXmYC1O8Cc9fxM-fiF-18" edge="1">
          <mxGeometry relative="1" as="geometry" />
        </mxCell>
        <mxCell id="EFBXmYC1O8Cc9fxM-fiF-16" value="Decode to image with OpenCV" style="whiteSpace=wrap;html=1;" parent="1" vertex="1">
          <mxGeometry x="500" y="450" width="120" height="60" as="geometry" />
        </mxCell>
        <mxCell id="EFBXmYC1O8Cc9fxM-fiF-21" value="" style="edgeStyle=orthogonalEdgeStyle;rounded=0;orthogonalLoop=1;jettySize=auto;html=1;" parent="1" source="EFBXmYC1O8Cc9fxM-fiF-18" target="EFBXmYC1O8Cc9fxM-fiF-20" edge="1">
          <mxGeometry relative="1" as="geometry" />
        </mxCell>
        <mxCell id="EFBXmYC1O8Cc9fxM-fiF-25" value="" style="edgeStyle=orthogonalEdgeStyle;rounded=0;orthogonalLoop=1;jettySize=auto;html=1;" parent="1" source="EFBXmYC1O8Cc9fxM-fiF-18" target="EFBXmYC1O8Cc9fxM-fiF-24" edge="1">
          <mxGeometry relative="1" as="geometry" />
        </mxCell>
        <mxCell id="EFBXmYC1O8Cc9fxM-fiF-18" value="Decode Image" style="rhombus;whiteSpace=wrap;html=1;" parent="1" vertex="1">
          <mxGeometry x="360" y="440" width="80" height="80" as="geometry" />
        </mxCell>
        <mxCell id="EFBXmYC1O8Cc9fxM-fiF-27" value="" style="edgeStyle=orthogonalEdgeStyle;rounded=0;orthogonalLoop=1;jettySize=auto;html=1;" parent="1" source="EFBXmYC1O8Cc9fxM-fiF-20" target="EFBXmYC1O8Cc9fxM-fiF-26" edge="1">
          <mxGeometry relative="1" as="geometry" />
        </mxCell>
        <mxCell id="EFBXmYC1O8Cc9fxM-fiF-20" value="Return error JSON: &quot;Invalid image format&quot;" style="whiteSpace=wrap;html=1;" parent="1" vertex="1">
          <mxGeometry x="340" y="560" width="120" height="60" as="geometry" />
        </mxCell>
        <mxCell id="EFBXmYC1O8Cc9fxM-fiF-31" value="" style="edgeStyle=orthogonalEdgeStyle;rounded=0;orthogonalLoop=1;jettySize=auto;html=1;" parent="1" source="EFBXmYC1O8Cc9fxM-fiF-24" target="EFBXmYC1O8Cc9fxM-fiF-30" edge="1">
          <mxGeometry relative="1" as="geometry" />
        </mxCell>
        <mxCell id="EFBXmYC1O8Cc9fxM-fiF-24" value="&lt;div&gt;Apply CLAHE enhancement to improve image contrast&lt;/div&gt;" style="whiteSpace=wrap;html=1;" parent="1" vertex="1">
          <mxGeometry x="160" y="440" width="120" height="80" as="geometry" />
        </mxCell>
        <mxCell id="EFBXmYC1O8Cc9fxM-fiF-26" value="" style="shape=waypoint;sketch=0;size=6;pointerEvents=1;points=[];fillColor=default;resizable=0;rotatable=0;perimeter=centerPerimeter;snapToPoint=1;strokeWidth=8;" parent="1" vertex="1">
          <mxGeometry x="520" y="580" width="20" height="20" as="geometry" />
        </mxCell>
        <mxCell id="EFBXmYC1O8Cc9fxM-fiF-28" value="Fail" style="text;html=1;align=center;verticalAlign=middle;whiteSpace=wrap;rounded=0;" parent="1" vertex="1">
          <mxGeometry x="390" y="510" width="60" height="30" as="geometry" />
        </mxCell>
        <mxCell id="EFBXmYC1O8Cc9fxM-fiF-29" value="Success" style="text;html=1;align=center;verticalAlign=middle;whiteSpace=wrap;rounded=0;" parent="1" vertex="1">
          <mxGeometry x="310" y="450" width="60" height="30" as="geometry" />
        </mxCell>
        <mxCell id="EFBXmYC1O8Cc9fxM-fiF-34" value="" style="edgeStyle=orthogonalEdgeStyle;rounded=0;orthogonalLoop=1;jettySize=auto;html=1;" parent="1" source="EFBXmYC1O8Cc9fxM-fiF-30" target="EFBXmYC1O8Cc9fxM-fiF-33" edge="1">
          <mxGeometry relative="1" as="geometry" />
        </mxCell>
        <mxCell id="EFBXmYC1O8Cc9fxM-fiF-30" value="Generate unique filename using existing image count" style="whiteSpace=wrap;html=1;" parent="1" vertex="1">
          <mxGeometry x="160" y="570" width="120" height="60" as="geometry" />
        </mxCell>
        <mxCell id="EFBXmYC1O8Cc9fxM-fiF-36" value="" style="edgeStyle=orthogonalEdgeStyle;rounded=0;orthogonalLoop=1;jettySize=auto;html=1;" parent="1" source="EFBXmYC1O8Cc9fxM-fiF-33" target="EFBXmYC1O8Cc9fxM-fiF-35" edge="1">
          <mxGeometry relative="1" as="geometry" />
        </mxCell>
        <mxCell id="EFBXmYC1O8Cc9fxM-fiF-33" value="Save enhanced image to &quot;images&quot; folder" style="whiteSpace=wrap;html=1;" parent="1" vertex="1">
          <mxGeometry x="160" y="670" width="120" height="60" as="geometry" />
        </mxCell>
        <mxCell id="EFBXmYC1O8Cc9fxM-fiF-38" value="" style="edgeStyle=orthogonalEdgeStyle;rounded=0;orthogonalLoop=1;jettySize=auto;html=1;" parent="1" source="EFBXmYC1O8Cc9fxM-fiF-35" target="EFBXmYC1O8Cc9fxM-fiF-37" edge="1">
          <mxGeometry relative="1" as="geometry" />
        </mxCell>
        <mxCell id="EFBXmYC1O8Cc9fxM-fiF-35" value="&lt;div&gt;Run YOLO model prediction on the enhanced image&lt;/div&gt;" style="whiteSpace=wrap;html=1;" parent="1" vertex="1">
          <mxGeometry x="330" y="670" width="120" height="60" as="geometry" />
        </mxCell>
        <mxCell id="EFBXmYC1O8Cc9fxM-fiF-40" value="" style="edgeStyle=orthogonalEdgeStyle;rounded=0;orthogonalLoop=1;jettySize=auto;html=1;" parent="1" source="EFBXmYC1O8Cc9fxM-fiF-37" target="EFBXmYC1O8Cc9fxM-fiF-39" edge="1">
          <mxGeometry relative="1" as="geometry" />
        </mxCell>
        <mxCell id="EFBXmYC1O8Cc9fxM-fiF-37" value="&lt;div&gt;Initialize empty detections list&lt;/div&gt;" style="whiteSpace=wrap;html=1;" parent="1" vertex="1">
          <mxGeometry x="480" y="670" width="120" height="60" as="geometry" />
        </mxCell>
        <mxCell id="EFBXmYC1O8Cc9fxM-fiF-42" value="" style="edgeStyle=orthogonalEdgeStyle;rounded=0;orthogonalLoop=1;jettySize=auto;html=1;" parent="1" source="EFBXmYC1O8Cc9fxM-fiF-39" target="EFBXmYC1O8Cc9fxM-fiF-41" edge="1">
          <mxGeometry relative="1" as="geometry" />
        </mxCell>
        <mxCell id="EFBXmYC1O8Cc9fxM-fiF-39" value="&lt;div&gt;Extract class_id, confidence, and bounding box&lt;/div&gt;" style="whiteSpace=wrap;html=1;" parent="1" vertex="1">
          <mxGeometry x="480" y="770" width="120" height="60" as="geometry" />
        </mxCell>
        <mxCell id="EFBXmYC1O8Cc9fxM-fiF-44" value="" style="edgeStyle=orthogonalEdgeStyle;rounded=0;orthogonalLoop=1;jettySize=auto;html=1;" parent="1" source="EFBXmYC1O8Cc9fxM-fiF-41" target="EFBXmYC1O8Cc9fxM-fiF-43" edge="1">
          <mxGeometry relative="1" as="geometry" />
        </mxCell>
        <mxCell id="EFBXmYC1O8Cc9fxM-fiF-41" value="&lt;div&gt;Return JSON response&lt;/div&gt;" style="whiteSpace=wrap;html=1;" parent="1" vertex="1">
          <mxGeometry x="320" y="775" width="120" height="50" as="geometry" />
        </mxCell>
        <mxCell id="EFBXmYC1O8Cc9fxM-fiF-43" value="END" style="ellipse;whiteSpace=wrap;html=1;" parent="1" vertex="1">
          <mxGeometry x="320" y="860" width="120" height="80" as="geometry" />
        </mxCell>
      </root>
    </mxGraphModel>
  </diagram>
</mxfile>
